<?xml version="1.0" encoding="UTF-8" ?>
<!DOCTYPE svg PUBLIC "-//W3C//DTD SVG 1.1//EN" "http://www.w3.org/Graphics/SVG/1.1/DTD/svg11.dtd">
<svg viewBox="0 0 96 96" version="1.1" xmlns="http://www.w3.org/2000/svg">
<g id="#000000ff">
<path d=" M 0.00 14.47 C 1.36 11.52 5.54 11.08 7.50 13.66 C 16.59 22.80 25.88 31.78 34.79 41.10 C 38.74 44.46 32.63 50.79 29.25 46.79 C 19.42 37.11 9.60 27.39 0.00 17.47 L 0.00 14.47 Z" />
<path d=" M 89.26 13.12 C 91.23 11.00 94.67 12.04 96.00 14.36 L 96.00 17.33 C 86.83 27.61 76.69 37.09 66.89 46.79 C 63.82 50.39 57.71 45.51 60.71 41.77 C 70.10 32.11 79.74 22.66 89.26 13.12 Z" />
<path d=" M 0.00 40.00 C 5.62 40.00 11.25 40.00 16.87 40.00 C 20.92 43.66 24.27 48.20 28.77 51.28 C 35.48 54.68 42.71 46.33 39.05 39.99 C 45.02 40.01 50.98 40.01 56.95 39.99 C 53.46 46.07 59.94 54.22 66.61 51.53 C 71.74 48.86 75.06 43.76 79.34 40.00 C 84.90 40.00 90.45 40.00 96.00 40.00 L 96.00 55.99 C 94.66 56.00 93.33 56.00 91.99 56.01 C 89.25 69.33 86.70 82.69 83.93 96.00 L 12.06 96.00 C 9.17 82.70 6.80 69.29 3.91 55.99 C 2.61 56.00 1.30 56.00 0.00 56.00 L 0.00 40.00 M 28.00 56.00 C 28.00 66.67 28.00 77.33 28.00 88.00 C 30.67 88.00 33.33 88.00 36.00 88.00 C 36.00 77.33 36.00 66.67 36.00 56.00 C 33.33 56.00 30.67 56.00 28.00 56.00 M 44.00 56.00 C 44.00 66.67 44.00 77.33 44.00 88.00 C 46.67 88.00 49.33 88.00 52.00 88.00 C 52.00 77.33 52.00 66.67 52.00 56.00 C 49.33 56.00 46.67 56.00 44.00 56.00 M 60.00 56.00 C 60.00 66.67 60.00 77.33 60.00 88.00 C 62.67 88.00 65.33 88.00 68.00 88.00 C 68.00 77.33 68.00 66.67 68.00 56.00 C 65.33 56.00 62.67 56.00 60.00 56.00 Z" />
</g>
</svg>
