<?xml version="1.0" encoding="UTF-8" ?>
<!DOCTYPE svg PUBLIC "-//W3C//DTD SVG 1.1//EN" "http://www.w3.org/Graphics/SVG/1.1/DTD/svg11.dtd">
<svg  viewBox="0 0 96 96" version="1.1" xmlns="http://www.w3.org/2000/svg">
<path d=" M 12.05 15.95 C 11.91 13.79 13.79 11.93 15.95 12.04 C 21.32 11.96 26.69 11.96 32.06 12.05 C 34.23 11.92 36.09 13.81 35.96 15.98 C 36.09 21.35 35.95 26.73 36.01 32.10 C 32.59 35.69 28.89 38.99 25.62 42.71 C 32.48 54.11 42.29 63.67 53.83 70.30 C 57.27 66.87 60.69 63.43 64.12 60.01 C 69.45 60.04 74.79 59.91 80.12 60.05 C 82.21 59.96 84.03 61.75 83.95 63.85 C 84.05 69.26 84.03 74.67 83.95 80.08 C 84.07 82.22 82.21 84.07 80.07 83.95 C 74.20 84.08 68.20 84.26 62.52 82.56 C 52.54 79.71 43.60 74.01 35.81 67.27 C 25.31 57.85 16.16 46.03 12.96 32.04 C 11.77 26.77 11.94 21.32 12.05 15.95 Z" />
</svg>
